<svg xmlns="http://www.w3.org/2000/svg" width="153" height="121" viewBox="0 0 153 121"><g><g><g><g transform="rotate(-270 6.5 5.5)"><path fill="#852169" d="M10.755 11.344L.815 5.762a.412.412 0 0 1 0-.724l9.94-5.582a.437.437 0 0 1 .587.153.41.41 0 0 1 .058.21v11.163a.425.425 0 0 1-.43.418.44.44 0 0 1-.215-.056z"></path></g></g><g><g transform="rotate(-270 6 42)"><path fill="#852169" d="M10.755 47.914l-9.94-5.582a.412.412 0 0 1 0-.724l9.94-5.582a.437.437 0 0 1 .587.153.41.41 0 0 1 .058.21v11.163a.425.425 0 0 1-.43.418.44.44 0 0 1-.215-.056z"></path></g></g><g><g transform="rotate(-270 6 78.5)"><path fill="#852169" d="M10.755 84.474l-9.94-5.582a.412.412 0 0 1 0-.724l9.94-5.582a.437.437 0 0 1 .587.153.41.41 0 0 1 .058.21v11.163a.425.425 0 0 1-.43.418.44.44 0 0 1-.215-.056z"></path></g></g><g><g transform="rotate(-270 6.5 115.5)"><path fill="#852169" d="M10.755 121.044l-9.94-5.582a.412.412 0 0 1 0-.724l9.94-5.582a.437.437 0 0 1 .587.153.41.41 0 0 1 .058.21v11.163a.425.425 0 0 1-.43.418.44.44 0 0 1-.215-.056z"></path></g></g><g><g transform="rotate(-270 41.5 5.5)"><path fill="#852169" d="M45.755 11.344l-9.94-5.582a.412.412 0 0 1 0-.724l9.94-5.582a.437.437 0 0 1 .587.153.41.41 0 0 1 .058.21v11.163a.425.425 0 0 1-.43.418.44.44 0 0 1-.215-.056z"></path></g></g><g><g transform="rotate(-270 41 42)"><path fill="#852169" d="M45.755 47.914l-9.94-5.582a.412.412 0 0 1 0-.724l9.94-5.582a.437.437 0 0 1 .587.153.41.41 0 0 1 .058.21v11.163a.425.425 0 0 1-.43.418.44.44 0 0 1-.215-.056z"></path></g></g><g><g transform="rotate(-270 41 78.5)"><path fill="#852169" d="M45.755 84.474l-9.94-5.582a.412.412 0 0 1 0-.724l9.94-5.582a.437.437 0 0 1 .587.153.41.41 0 0 1 .058.21v11.163a.425.425 0 0 1-.43.418.44.44 0 0 1-.215-.056z"></path></g></g><g><g transform="rotate(-270 41.5 115.5)"><path fill="#852169" d="M45.755 121.044l-9.94-5.582a.412.412 0 0 1 0-.724l9.94-5.582a.437.437 0 0 1 .587.153.41.41 0 0 1 .058.21v11.163a.425.425 0 0 1-.43.418.44.44 0 0 1-.215-.056z"></path></g></g><g><g transform="rotate(-270 76.5 5.5)"><path fill="#852169" d="M80.755 11.344l-9.94-5.582a.412.412 0 0 1 0-.724l9.94-5.582a.437.437 0 0 1 .587.153.41.41 0 0 1 .058.21v11.163a.425.425 0 0 1-.43.418.44.44 0 0 1-.215-.056z"></path></g></g><g><g transform="rotate(-270 76 42)"><path fill="#852169" d="M80.755 47.914l-9.94-5.582a.412.412 0 0 1 0-.724l9.94-5.582a.437.437 0 0 1 .587.153.41.41 0 0 1 .058.21v11.163a.425.425 0 0 1-.43.418.44.44 0 0 1-.215-.056z"></path></g></g><g><g transform="rotate(-270 76 78.5)"><path fill="#852169" d="M80.755 84.474l-9.94-5.582a.412.412 0 0 1 0-.724l9.94-5.582a.437.437 0 0 1 .587.153.41.41 0 0 1 .058.21v11.163a.425.425 0 0 1-.43.418.44.44 0 0 1-.215-.056z"></path></g></g><g><g transform="rotate(-270 76.5 115.5)"><path fill="#852169" d="M80.755 121.044l-9.94-5.582a.412.412 0 0 1 0-.724l9.94-5.582a.437.437 0 0 1 .587.153.41.41 0 0 1 .058.21v11.163a.425.425 0 0 1-.43.418.44.44 0 0 1-.215-.056z"></path></g></g><g><g transform="rotate(-270 111.5 5.5)"><path fill="#852169" d="M115.755 11.344l-9.94-5.582a.412.412 0 0 1 0-.724l9.94-5.582a.437.437 0 0 1 .587.153.41.41 0 0 1 .058.21v11.163a.425.425 0 0 1-.43.418.44.44 0 0 1-.215-.056z"></path></g></g><g><g transform="rotate(-270 111 42)"><path fill="#852169" d="M115.755 47.914l-9.94-5.582a.412.412 0 0 1 0-.724l9.94-5.582a.437.437 0 0 1 .587.153.41.41 0 0 1 .058.21v11.163a.425.425 0 0 1-.43.418.44.44 0 0 1-.215-.056z"></path></g></g><g><g transform="rotate(-270 111 78.5)"><path fill="#852169" d="M115.755 84.474l-9.94-5.582a.412.412 0 0 1 0-.724l9.94-5.582a.437.437 0 0 1 .587.153.41.41 0 0 1 .058.21v11.163a.425.425 0 0 1-.43.418.44.44 0 0 1-.215-.056z"></path></g></g><g><g transform="rotate(-270 111.5 115.5)"><path fill="#852169" d="M115.755 121.044l-9.94-5.582a.412.412 0 0 1 0-.724l9.94-5.582a.437.437 0 0 1 .587.153.41.41 0 0 1 .058.21v11.163a.425.425 0 0 1-.43.418.44.44 0 0 1-.215-.056z"></path></g></g><g><g transform="rotate(-270 146.5 5.5)"><path fill="#852169" d="M150.755 11.344l-9.94-5.582a.412.412 0 0 1 0-.724l9.94-5.582a.437.437 0 0 1 .587.153.41.41 0 0 1 .058.21v11.163a.425.425 0 0 1-.43.418.44.44 0 0 1-.215-.056z"></path></g></g><g><g transform="rotate(-270 146 42)"><path fill="#852169" d="M150.755 47.914l-9.94-5.582a.412.412 0 0 1 0-.724l9.94-5.582a.437.437 0 0 1 .587.153.41.41 0 0 1 .058.21v11.163a.425.425 0 0 1-.43.418.44.44 0 0 1-.215-.056z"></path></g></g><g><g transform="rotate(-270 146 78.5)"><path fill="#852169" d="M150.755 84.474l-9.94-5.582a.412.412 0 0 1 0-.724l9.94-5.582a.437.437 0 0 1 .587.153.41.41 0 0 1 .058.21v11.163a.425.425 0 0 1-.43.418.44.44 0 0 1-.215-.056z"></path></g></g><g><g transform="rotate(-270 146.5 115.5)"><path fill="#852169" d="M150.755 121.044l-9.94-5.582a.412.412 0 0 1 0-.724l9.94-5.582a.437.437 0 0 1 .587.153.41.41 0 0 1 .058.21v11.163a.425.425 0 0 1-.43.418.44.44 0 0 1-.215-.056z"></path></g></g></g></g></svg>